<svg width="100" height="100" viewBox="0 0 100 100" fill="none" xmlns="http://www.w3.org/2000/svg">
<rect width="100" height="100" rx="10" fill="#27AE60"/>
<path d="M19.7565 14.9711L18.529 17.3458C15.3308 24.6116 14.618 32.9242 16.3971 42.3212C17.216 46.6436 18.5698 49.9689 20.2598 52.4516C21.9493 54.9345 23.1125 55.8429 24.7088 56.8248C28.3404 59.0946 31.9357 58.9571 33.7384 58.6149C37.7121 57.8604 40.0729 55.2316 42.1693 53.8211L38.4855 48.0567C35.7474 49.9005 33.6345 51.6256 32.457 51.8492C31.7583 51.9818 29.9492 52.0917 28.2215 51.0179C26.4933 49.9443 24.2445 47.5286 23.02 41.0637C21.1409 31.1406 23.3277 24.573 24.1805 22.2305C28.5491 22.9586 33.4959 22.915 38.2448 24.0381C41.0777 24.7073 43.4594 25.8127 45.3239 27.4057C47.1884 28.9986 48.6091 31.0651 49.2712 34.5608C49.9045 37.9061 48.9228 39.7668 47.9294 41.1626C47.7438 41.3926 47.6479 41.4886 47.4926 41.6738C44.9289 37.7995 41.2466 34.2542 36.0305 31.4676L33.0079 37.6487C44.7146 43.9147 46.0361 53.71 47.7943 62.9939L54.4173 61.7366C53.6558 57.7148 52.7005 52.873 50.7604 48.0624C51.551 47.4061 52.5194 46.4824 53.4314 45.2579C55.3065 42.6824 56.8834 38.528 55.8936 33.3035C54.9756 28.4546 52.6912 24.644 49.6934 22.0981C46.6955 19.5522 43.1315 18.2429 39.6968 17.4154C32.7907 15.7672 21.928 15.5713 19.7565 14.9711Z" fill="#F4F5F6"/>
<path d="M87.2925 36.6046L87.2133 38.4955C86.6284 44.0813 84.1574 49.421 79.782 54.5342C77.7696 56.8863 75.7786 58.4373 73.8764 59.353C71.9742 60.2687 70.9453 60.4092 69.6251 60.4405C66.6099 60.5325 64.4586 59.1657 63.4753 58.3124C61.3086 56.4326 60.7835 53.9819 59.9948 52.371L64.264 50.1595C65.2939 52.2646 65.9834 54.0742 66.6255 54.6312C67.0066 54.9617 68.0751 55.6746 69.5075 55.6342C70.9401 55.5942 73.1608 54.9193 76.1704 51.4015C80.7908 46.0018 81.7498 41.2035 82.0475 39.4664C79.1206 38.3528 76.1093 36.5604 72.8117 35.5527C70.8446 34.951 69.0012 34.7769 67.3033 35.086C65.6059 35.395 64.0139 36.1524 62.3865 38.0544C60.829 39.8748 60.7788 41.3634 60.8982 42.5719C60.9313 42.7785 60.9564 42.8717 60.9866 43.0406C63.91 41.5852 67.4023 40.7309 71.568 40.8877L71.2549 45.7476C61.9021 45.4025 57.6679 50.9229 53.3454 55.975L49.7337 52.8423C51.6065 50.6534 53.8838 48.0326 56.753 45.7823C56.499 45.0986 56.2297 44.1878 56.1004 43.1133C55.8537 40.8685 56.3421 37.7645 58.7748 34.9215C61.0323 32.2831 63.7622 30.7674 66.4866 30.2799C69.211 29.7923 71.849 30.2635 74.2397 30.9831C79.0407 32.4398 85.7541 36.1965 87.2925 36.6046Z" fill="#F4F5F6"/>
<path d="M80.3429 84.2036L78.5789 84.8889C73.2269 86.5918 67.3445 86.4681 60.9062 84.5088C57.9448 83.6078 55.7259 82.4054 54.1245 81.0296C52.5232 79.6539 51.9821 78.7676 51.4243 77.5706C50.1316 74.845 50.5215 72.3262 50.9091 71.0834C51.763 68.3449 53.7977 66.8817 54.9575 65.5134L58.6948 68.5384C57.1789 70.3257 55.7973 71.6827 55.5444 72.4941C55.3943 72.9757 55.1694 74.2404 55.7805 75.5365C56.3913 76.8329 57.8997 78.597 62.3288 79.9444C69.1277 82.0133 73.9081 80.9688 75.6189 80.5453C75.4661 77.4174 75.9013 73.9402 75.5029 70.5152C75.2657 68.4718 74.6864 66.7132 73.7227 65.2815C72.7593 63.8502 71.4274 62.6952 69.0325 61.9666C66.7405 61.2692 65.3565 61.8199 64.2972 62.4137C64.1212 62.5268 64.0459 62.5871 63.9033 62.6825C66.4083 64.7775 68.5907 67.6347 70.1166 71.514L65.5387 73.175C62.1063 64.4678 55.3516 62.8012 48.9906 60.8659L50.4132 56.3014C53.1692 57.1399 56.483 58.1759 59.6946 59.9026C60.2191 59.3959 60.9457 58.7842 61.8783 58.2351C63.836 57.1093 66.8755 56.3127 70.4553 57.402C73.7772 58.4128 76.26 60.3064 77.7986 62.607C79.3372 64.9076 79.9628 67.5133 80.2617 69.9919C80.8514 74.9744 80.1003 82.6306 80.3429 84.2036Z" fill="#F4F5F6"/>
</svg>
