<svg width="339" height="152" viewBox="0 0 339 152" fill="none" xmlns="http://www.w3.org/2000/svg">
<g clip-path="url(#clip0_3_61)">
<path d="M195.428 132.016C191.223 132.016 187.455 131.333 184.124 129.968C180.793 128.603 178.117 126.582 176.096 123.906C174.13 121.23 173.093 118.008 172.983 114.24H187.893C188.111 116.37 188.848 118.008 190.104 119.155C191.36 120.247 192.998 120.794 195.019 120.794C197.094 120.794 198.732 120.329 199.934 119.401C201.135 118.418 201.736 117.08 201.736 115.387C201.736 113.967 201.245 112.793 200.262 111.865C199.333 110.936 198.159 110.172 196.739 109.571C195.374 108.97 193.408 108.288 190.841 107.523C187.128 106.377 184.097 105.23 181.749 104.083C179.401 102.936 177.38 101.243 175.687 99.0042C173.994 96.7648 173.148 93.8436 173.148 90.2393C173.148 84.8871 175.086 80.7095 178.963 77.7064C182.841 74.6478 187.893 73.1191 194.118 73.1191C200.453 73.1191 205.558 74.6478 209.436 77.7064C213.313 80.7095 215.388 84.9149 215.662 90.3213H200.507C200.398 88.4643 199.715 87.0169 198.459 85.9798C197.203 84.8871 195.593 84.3415 193.627 84.3415C191.934 84.3415 190.568 84.8052 189.531 85.734C188.493 86.6074 187.975 87.8909 187.975 89.584C187.975 91.4403 188.848 92.8877 190.596 93.9255C192.343 94.9627 195.073 96.0824 198.787 97.284C202.501 98.5398 205.504 99.7415 207.797 100.888C210.146 102.035 212.167 103.7 213.859 105.885C215.552 108.069 216.398 110.882 216.398 114.322C216.398 117.599 215.552 120.575 213.859 123.251C212.221 125.927 209.818 128.056 206.65 129.64C203.484 131.224 199.743 132.016 195.428 132.016Z" fill="#001633"/>
<path d="M42.5894 73.7234V84.9457H27.3533V131.228H13.3458V84.9457H-1.89034V73.7234H42.5894Z" fill="#001633"/>
<path d="M249.629 2.99783L248.029 6.09337C243.86 15.5647 242.93 26.4005 245.25 38.6499C246.317 44.2844 248.082 48.6192 250.285 51.8555C252.487 55.0921 254.003 56.2762 256.084 57.5561C260.818 60.515 265.505 60.3357 267.855 59.8895C273.035 58.9061 276.112 55.4793 278.845 53.6407L274.043 46.1265C270.474 48.53 267.719 50.7787 266.184 51.0702C265.274 51.243 262.915 51.3863 260.663 49.9865C258.41 48.587 255.479 45.4381 253.883 37.0108C251.433 24.0755 254.284 15.5144 255.396 12.4607C261.09 13.4099 267.539 13.353 273.729 14.8171C277.422 15.6894 280.527 17.1304 282.957 19.2069C285.388 21.2833 287.24 23.9771 288.102 28.5339C288.928 32.8947 287.648 35.3203 286.353 37.1396C286.111 37.4395 285.987 37.5646 285.784 37.8061C282.442 32.7557 277.642 28.1343 270.843 24.5017L266.903 32.5591C282.163 40.7271 283.885 53.4958 286.177 65.5978L294.811 63.9589C293.818 58.7163 292.573 52.4047 290.044 46.134C291.074 45.2784 292.337 44.0743 293.526 42.4781C295.97 39.1208 298.025 33.7053 296.735 26.8949C295.539 20.5742 292.561 15.6069 288.653 12.2882C284.745 8.96944 280.099 7.26281 275.622 6.18405C266.619 4.03559 252.459 3.78019 249.629 2.99783Z" fill="#27AE60"/>
<path d="M337.665 31.1981L337.562 33.663C336.799 40.9443 333.578 47.9049 327.875 54.5703C325.251 57.6362 322.656 59.6581 320.176 60.8518C317.697 62.0454 316.356 62.2286 314.635 62.2694C310.704 62.3892 307.9 60.6075 306.618 59.4953C303.794 57.0449 303.109 53.8503 302.081 51.7504L307.646 48.8675C308.989 51.6117 309.888 53.9706 310.725 54.6966C311.221 55.1274 312.614 56.0568 314.481 56.0041C316.349 55.952 319.244 55.0722 323.167 50.4866C329.19 43.4479 330.44 37.193 330.828 34.9287C327.012 33.477 323.087 31.1405 318.789 29.8269C316.224 29.0426 313.821 28.8156 311.608 29.2186C309.395 29.6213 307.32 30.6086 305.199 33.088C303.169 35.461 303.103 37.4015 303.259 38.9768C303.302 39.2461 303.335 39.3676 303.374 39.5877C307.185 37.6905 311.737 36.577 317.167 36.7814L316.759 43.1164C304.567 42.6665 299.048 49.8628 293.413 56.4484L288.705 52.3647C291.147 49.5114 294.115 46.0951 297.855 43.1616C297.524 42.2705 297.173 41.0832 297.005 39.6826C296.683 36.7563 297.32 32.7102 300.491 29.0041C303.433 25.5648 306.992 23.589 310.543 22.9535C314.095 22.318 317.534 22.9322 320.65 23.8702C326.908 25.7691 335.66 30.6662 337.665 31.1981Z" fill="#27AE60"/>
<path d="M328.606 93.2457L326.306 94.1391C319.33 96.3588 311.662 96.1975 303.269 93.6436C299.409 92.4691 296.516 90.9016 294.429 89.1083C292.342 87.3149 291.636 86.1596 290.909 84.5992C289.224 81.0463 289.732 77.763 290.238 76.143C291.351 72.5731 294.003 70.6657 295.515 68.8822L300.387 72.8253C298.41 75.1552 296.61 76.924 296.28 77.9818C296.084 78.6096 295.791 80.2581 296.588 81.9477C297.384 83.6377 299.35 85.9372 305.124 87.6936C313.986 90.3906 320.218 89.0289 322.448 88.4769C322.249 84.3996 322.816 79.8668 322.297 75.4022C321.988 72.7385 321.232 70.4461 319.976 68.5799C318.72 66.7141 316.984 65.2085 313.862 64.2587C310.875 63.3497 309.07 64.0674 307.69 64.8415C307.46 64.989 307.362 65.0676 307.176 65.1919C310.442 67.9228 313.286 71.6473 315.276 76.7042L309.308 78.8693C304.834 67.5192 296.029 65.3466 287.737 62.8239L289.591 56.8739C293.184 57.9668 297.503 59.3173 301.69 61.5682C302.374 60.9077 303.321 60.1103 304.536 59.3945C307.088 57.927 311.051 56.8886 315.717 58.3086C320.047 59.6261 323.284 62.0945 325.289 65.0935C327.295 68.0924 328.111 71.4891 328.5 74.7201C329.269 81.215 328.29 91.1953 328.606 93.2457Z" fill="#27AE60"/>
<path d="M53.1051 111.08V130H44.0284V86.3636H52.8494V103.047H53.233C53.9716 101.115 55.1648 99.6023 56.8125 98.5085C58.4602 97.4006 60.527 96.8466 63.0128 96.8466C65.2855 96.8466 67.267 97.3438 68.9574 98.3381C70.6619 99.3182 71.983 100.732 72.9205 102.578C73.8722 104.411 74.3409 106.605 74.3267 109.162V130H65.25V110.781C65.2642 108.764 64.7528 107.195 63.7159 106.072C62.6932 104.95 61.2585 104.389 59.4119 104.389C58.1761 104.389 57.0824 104.652 56.1307 105.178C55.1932 105.703 54.4545 106.47 53.9148 107.479C53.3892 108.473 53.1193 109.673 53.1051 111.08ZM81.4698 130V97.2727H90.2695V102.983H90.6104C91.207 100.952 92.2085 99.4176 93.6147 98.3807C95.021 97.3295 96.6403 96.804 98.4727 96.804C98.9272 96.804 99.4173 96.8324 99.9428 96.8892C100.468 96.946 100.93 97.0241 101.328 97.1236V105.178C100.902 105.05 100.312 104.936 99.5593 104.837C98.8065 104.737 98.1175 104.688 97.4925 104.688C96.1573 104.688 94.9641 104.979 93.913 105.561C92.8761 106.129 92.0522 106.925 91.4414 107.947C90.8448 108.97 90.5465 110.149 90.5465 111.484V130H81.4698ZM119.412 130.639C116.045 130.639 113.148 129.957 110.719 128.594C108.304 127.216 106.443 125.27 105.136 122.756C103.83 120.227 103.176 117.237 103.176 113.786C103.176 110.419 103.83 107.464 105.136 104.922C106.443 102.379 108.283 100.398 110.655 98.9773C113.041 97.5568 115.839 96.8466 119.05 96.8466C121.209 96.8466 123.219 97.1946 125.08 97.8906C126.955 98.5724 128.588 99.6023 129.98 100.98C131.386 102.358 132.48 104.091 133.261 106.179C134.043 108.253 134.433 110.682 134.433 113.466V115.959H106.798V110.334H125.889C125.889 109.027 125.605 107.869 125.037 106.861C124.469 105.852 123.68 105.064 122.672 104.496C121.678 103.913 120.52 103.622 119.199 103.622C117.821 103.622 116.599 103.942 115.534 104.581C114.483 105.206 113.659 106.051 113.062 107.116C112.466 108.168 112.161 109.339 112.146 110.632V115.98C112.146 117.599 112.445 118.999 113.041 120.178C113.652 121.357 114.511 122.266 115.619 122.905C116.727 123.544 118.041 123.864 119.561 123.864C120.57 123.864 121.493 123.722 122.331 123.438C123.169 123.153 123.886 122.727 124.483 122.159C125.08 121.591 125.534 120.895 125.847 120.071L134.241 120.625C133.815 122.642 132.942 124.403 131.621 125.909C130.314 127.401 128.624 128.565 126.55 129.403C124.49 130.227 122.111 130.639 119.412 130.639ZM155.271 130.639C151.905 130.639 149.007 129.957 146.578 128.594C144.163 127.216 142.303 125.27 140.996 122.756C139.689 120.227 139.036 117.237 139.036 113.786C139.036 110.419 139.689 107.464 140.996 104.922C142.303 102.379 144.142 100.398 146.514 98.9773C148.901 97.5568 151.699 96.8466 154.909 96.8466C157.068 96.8466 159.078 97.1946 160.939 97.8906C162.814 98.5724 164.447 99.6023 165.839 100.98C167.246 102.358 168.339 104.091 169.121 106.179C169.902 108.253 170.293 110.682 170.293 113.466V115.959H142.658V110.334H161.749C161.749 109.027 161.464 107.869 160.896 106.861C160.328 105.852 159.54 105.064 158.531 104.496C157.537 103.913 156.379 103.622 155.058 103.622C153.68 103.622 152.459 103.942 151.393 104.581C150.342 105.206 149.518 106.051 148.922 107.116C148.325 108.168 148.02 109.339 148.006 110.632V115.98C148.006 117.599 148.304 118.999 148.901 120.178C149.511 121.357 150.371 122.266 151.479 122.905C152.587 123.544 153.901 123.864 155.42 123.864C156.429 123.864 157.352 123.722 158.19 123.438C159.028 123.153 159.746 122.727 160.342 122.159C160.939 121.591 161.393 120.895 161.706 120.071L170.101 120.625C169.675 122.642 168.801 124.403 167.48 125.909C166.173 127.401 164.483 128.565 162.409 129.403C160.349 130.227 157.97 130.639 155.271 130.639Z" fill="#001633"/>
<path d="M236.163 130.639C232.853 130.639 229.991 129.936 227.576 128.53C225.176 127.109 223.322 125.135 222.015 122.607C220.708 120.064 220.055 117.116 220.055 113.764C220.055 110.384 220.708 107.429 222.015 104.901C223.322 102.358 225.176 100.384 227.576 98.9773C229.991 97.5568 232.853 96.8466 236.163 96.8466C239.473 96.8466 242.328 97.5568 244.728 98.9773C247.143 100.384 249.004 102.358 250.311 104.901C251.618 107.429 252.271 110.384 252.271 113.764C252.271 117.116 251.618 120.064 250.311 122.607C249.004 125.135 247.143 127.109 244.728 128.53C242.328 129.936 239.473 130.639 236.163 130.639ZM236.206 123.608C237.711 123.608 238.968 123.182 239.977 122.33C240.985 121.463 241.745 120.284 242.257 118.793C242.782 117.301 243.045 115.604 243.045 113.7C243.045 111.797 242.782 110.099 242.257 108.608C241.745 107.116 240.985 105.937 239.977 105.071C238.968 104.205 237.711 103.771 236.206 103.771C234.686 103.771 233.407 104.205 232.37 105.071C231.348 105.937 230.574 107.116 230.048 108.608C229.537 110.099 229.281 111.797 229.281 113.7C229.281 115.604 229.537 117.301 230.048 118.793C230.574 120.284 231.348 121.463 232.37 122.33C233.407 123.182 234.686 123.608 236.206 123.608ZM258.173 130V97.2727H267.25V130H258.173ZM262.733 93.054C261.383 93.054 260.225 92.6065 259.26 91.7116C258.308 90.8026 257.832 89.7159 257.832 88.4517C257.832 87.2017 258.308 86.1293 259.26 85.2344C260.225 84.3253 261.383 83.8707 262.733 83.8707C264.082 83.8707 265.233 84.3253 266.184 85.2344C267.15 86.1293 267.633 87.2017 267.633 88.4517C267.633 89.7159 267.15 90.8026 266.184 91.7116C265.233 92.6065 264.082 93.054 262.733 93.054ZM283.597 86.3636V130H274.521V86.3636H283.597Z" fill="#001633"/>
</g>
<defs>
<clipPath id="clip0_3_61">
<rect width="339" height="151.858" fill="white"/>
</clipPath>
</defs>
</svg>
