<svg width="45" height="45" viewBox="0 0 45 45" fill="none" xmlns="http://www.w3.org/2000/svg">
<g filter="url(#filter0_d_79_7)">
<circle cx="19.5" cy="20.5" r="12.5" fill="#F4F5F6"/>
</g>
<path d="M18.9773 23.7273V23.6591C18.9848 22.9356 19.0606 22.3598 19.2045 21.9318C19.3485 21.5038 19.553 21.1572 19.8182 20.892C20.0833 20.6269 20.4015 20.3826 20.7727 20.1591C20.9962 20.0227 21.197 19.8617 21.375 19.6761C21.553 19.4867 21.6932 19.2689 21.7955 19.0227C21.9015 18.7765 21.9545 18.5038 21.9545 18.2045C21.9545 17.8333 21.8674 17.5114 21.6932 17.2386C21.5189 16.9659 21.286 16.7557 20.9943 16.608C20.7027 16.4602 20.3788 16.3864 20.0227 16.3864C19.7121 16.3864 19.4129 16.4508 19.125 16.5795C18.8371 16.7083 18.5966 16.911 18.4034 17.1875C18.2102 17.464 18.0985 17.8258 18.0682 18.2727H16.6364C16.6667 17.6288 16.8333 17.0777 17.1364 16.6193C17.4432 16.161 17.8466 15.8106 18.3466 15.5682C18.8504 15.3258 19.4091 15.2045 20.0227 15.2045C20.6894 15.2045 21.2689 15.3371 21.7614 15.6023C22.2576 15.8674 22.6402 16.2311 22.9091 16.6932C23.1818 17.1553 23.3182 17.6818 23.3182 18.2727C23.3182 18.6894 23.2538 19.0663 23.125 19.4034C23 19.7405 22.8182 20.0417 22.5795 20.3068C22.3447 20.572 22.0606 20.8068 21.7273 21.0114C21.3939 21.2197 21.1269 21.4394 20.9261 21.6705C20.7254 21.8977 20.5795 22.1686 20.4886 22.483C20.3977 22.7973 20.3485 23.1894 20.3409 23.6591V23.7273H18.9773ZM19.7045 27.0909C19.4242 27.0909 19.1837 26.9905 18.983 26.7898C18.7822 26.589 18.6818 26.3485 18.6818 26.0682C18.6818 25.7879 18.7822 25.5473 18.983 25.3466C19.1837 25.1458 19.4242 25.0455 19.7045 25.0455C19.9848 25.0455 20.2254 25.1458 20.4261 25.3466C20.6269 25.5473 20.7273 25.7879 20.7273 26.0682C20.7273 26.2538 20.6799 26.4242 20.5852 26.5795C20.4943 26.7348 20.3712 26.8598 20.2159 26.9545C20.0644 27.0455 19.8939 27.0909 19.7045 27.0909Z" fill="#001633"/>
<defs>
<filter id="filter0_d_79_7" x="0" y="0" width="45" height="45" filterUnits="userSpaceOnUse" color-interpolation-filters="sRGB">
<feFlood flood-opacity="0" result="BackgroundImageFix"/>
<feColorMatrix in="SourceAlpha" type="matrix" values="0 0 0 0 0 0 0 0 0 0 0 0 0 0 0 0 0 0 127 0" result="hardAlpha"/>
<feOffset dx="3" dy="2"/>
<feGaussianBlur stdDeviation="5"/>
<feComposite in2="hardAlpha" operator="out"/>
<feColorMatrix type="matrix" values="0 0 0 0 0 0 0 0 0 0 0 0 0 0 0 0 0 0 0.35 0"/>
<feBlend mode="normal" in2="BackgroundImageFix" result="effect1_dropShadow_79_7"/>
<feBlend mode="normal" in="SourceGraphic" in2="effect1_dropShadow_79_7" result="shape"/>
</filter>
</defs>
</svg>
